<svg width="32" height="32" viewBox="0 0 32 32" fill="none" xmlns="http://www.w3.org/2000/svg">
<path d="M9.47195 18.3514C11.7279 18.3514 13.5359 20.177 13.5359 22.449V27.9034C13.5359 30.1594 11.7279 31.9994 9.47195 31.9994H4.06398C1.82399 31.9994 0 30.1594 0 27.9034V22.449C0 20.177 1.82399 18.3514 4.06398 18.3514H9.47195ZM27.936 18.3514C30.176 18.3514 32 20.177 32 22.449V27.9034C32 30.1594 30.176 31.9994 27.936 31.9994H22.528C20.2721 31.9994 18.4641 30.1594 18.4641 27.9034V22.449C18.4641 20.177 20.2721 18.3514 22.528 18.3514H27.936ZM9.47195 0C11.7279 0 13.5359 1.83999 13.5359 4.09758V9.55195C13.5359 11.8239 11.7279 13.6479 9.47195 13.6479H4.06398C1.82399 13.6479 0 11.8239 0 9.55195V4.09758C0 1.83999 1.82399 0 4.06398 0H9.47195ZM27.936 0C30.176 0 32 1.83999 32 4.09758V9.55195C32 11.8239 30.176 13.6479 27.936 13.6479H22.528C20.2721 13.6479 18.4641 11.8239 18.4641 9.55195V4.09758C18.4641 1.83999 20.2721 0 22.528 0H27.936Z" fill="#BBBBBB"/>
</svg>
