<svg width="32" height="32" viewBox="0 0 32 32" fill="none" xmlns="http://www.w3.org/2000/svg">
<path d="M31.9983 14.3559C31.9952 14.059 31.8747 13.7755 31.663 13.5671L28.4589 10.7022L16.7605 0.284236C16.5556 0.101195 16.2903 0 16.0154 0C15.7405 0 15.4752 0.101195 15.2703 0.284236L3.60167 10.7022L0.36784 13.5671C0.157452 13.761 0.027227 14.0264 0.00272997 14.3112C-0.0161145 14.5819 0.0630665 14.8502 0.225835 15.0674C0.388603 15.2846 0.624114 15.4362 0.889425 15.4944C0.889425 15.5316 3.12479 15.4944 3.1993 15.4944V30.8832C3.1993 31.1792 3.31706 31.4631 3.52666 31.6725C3.73627 31.8818 4.02056 31.9994 4.31699 31.9994H11.88C12.0299 32.0044 12.1792 31.9792 12.3191 31.9253C12.4591 31.8715 12.5867 31.7901 12.6945 31.6859C12.8023 31.5818 12.8879 31.457 12.9464 31.3191C13.0049 31.1812 13.035 31.0329 13.0349 30.8832V21.6261H19.0704V30.8832C19.0704 31.1792 19.1882 31.4631 19.3978 31.6725C19.6074 31.8818 19.8917 31.9994 20.1881 31.9994H27.684C27.9804 31.9994 28.2647 31.8818 28.4743 31.6725C28.6839 31.4631 28.8017 31.1792 28.8017 30.8832V15.5167C28.906 15.5167 31.1041 15.5167 31.1116 15.5167C31.3736 15.4604 31.6069 15.3125 31.7694 15.0997C31.932 14.8869 32.0131 14.6231 31.9983 14.3559Z" fill="#E2E4E9"/>
</svg>
