<svg width="32" height="32" viewBox="0 0 32 32" fill="none" xmlns="http://www.w3.org/2000/svg">
<path fill-rule="evenodd" clip-rule="evenodd" d="M30.5067 7.6C30.3467 6.68 29.6178 6 28.7644 6H3.23556C2.38222 6 1.65333 6.68 1.49333 7.6L0 16V18C0 19.1 0.8 20 1.77778 20V30C1.77778 31.1 2.57778 32 3.55556 32H17.7778C18.7556 32 19.5556 31.1 19.5556 30V20H26.6667V30C26.6667 31.1 27.4667 32 28.4444 32C29.4222 32 30.2222 31.1 30.2222 30V20C31.2 20 32 19.1 32 18V16L30.5067 7.6ZM16 28H5.33333V20H16V28ZM3.55556 4H28.4444C29.4222 4 30.2222 3.1 30.2222 2C30.2222 0.9 29.4222 0 28.4444 0H3.55556C2.57778 0 1.77778 0.9 1.77778 2C1.77778 3.1 2.57778 4 3.55556 4Z" fill="#BBBBBB"/>
</svg>
